<?xml version="1.0" encoding="UTF-8" standalone="no" ?>
<!DOCTYPE svg PUBLIC "-//W3C//DTD SVG 1.1//EN" "http://www.w3.org/Graphics/SVG/1.1/DTD/svg11.dtd">
<svg xmlns="http://www.w3.org/2000/svg" xmlns:xlink="http://www.w3.org/1999/xlink" version="1.1" width="350" height="350" viewBox="0 0 350 350" xml:space="preserve">
<desc>Created with Fabric.js 1.7.22</desc>
<defs>
</defs>
<g id="icon" style="stroke: none; stroke-width: 1; stroke-dasharray: none; stroke-linecap: butt; stroke-linejoin: miter; stroke-miterlimit: 10; fill: none; fill-rule: nonzero; opacity: 1;" transform="translate(-1.9444444444444287 -1.9444444444444287) scale(3.89 3.89)" >
	<path d="M 87.916 30.921 c -3.035 -2.574 -8.525 -2.67 -15.087 -0.282 l -23.655 -3.992 c -2.775 -0.469 -5.588 -0.469 -8.362 0 l -23.647 3.991 c -6.559 -2.387 -12.046 -2.29 -15.082 0.284 c -1.681 1.425 -2.395 3.528 -1.958 5.767 c 0.841 4.317 5.443 8.264 12.328 10.61 c 8.785 10.393 16.968 16.408 32.54 16.408 c 15.569 0 23.753 -6.013 32.535 -16.401 c 6.896 -2.345 11.505 -6.296 12.347 -10.616 C 90.311 34.448 89.598 32.346 87.916 30.921 z M 2.089 36.305 c -0.303 -1.553 0.143 -2.887 1.288 -3.859 c 2.228 -1.889 6.508 -2.021 11.645 -0.422 c -0.102 0.185 -0.195 0.377 -0.25 0.587 l -3.098 11.751 c -0.043 0.163 -0.052 0.328 -0.068 0.493 C 5.383 42.385 2.594 38.896 2.089 36.305 z M 44.993 61.705 c -14.866 0 -22.402 -5.514 -30.999 -15.683 c -0.06 -0.122 -0.145 -0.23 -0.25 -0.319 c -0.156 -0.246 -0.211 -0.545 -0.135 -0.832 l 3.098 -11.751 c 0.063 -0.24 0.263 -0.422 0.508 -0.464 l 23.931 -4.039 c 1.276 -0.215 2.562 -0.323 3.847 -0.323 c 1.286 0 2.571 0.108 3.848 0.323 l 23.931 4.039 c 0.245 0.042 0.444 0.223 0.508 0.464 l 3.098 11.751 c 0.081 0.306 0.015 0.627 -0.166 0.88 c -0.052 0.05 -0.092 0.11 -0.132 0.17 C 67.445 56.157 59.91 61.705 44.993 61.705 z M 87.911 36.305 c -0.505 2.593 -3.297 6.085 -9.531 8.554 c -0.016 -0.167 -0.026 -0.334 -0.069 -0.498 l -3.098 -11.75 c -0.055 -0.209 -0.147 -0.399 -0.248 -0.583 c 5.142 -1.602 9.429 -1.472 11.658 0.419 C 87.769 33.418 88.214 34.752 87.911 36.305 z" style="stroke: none; stroke-width: 1; stroke-dasharray: none; stroke-linecap: butt; stroke-linejoin: miter; stroke-miterlimit: 10; fill: rgb(75,85,99); fill-rule: nonzero; opacity: 1;" transform=" matrix(1 0 0 1 0 0) " stroke-linecap="round" />
	<path d="M 44.993 54.913 c -9.45 0 -14.411 -1.842 -19.785 -5.024 c -0.476 -0.281 -0.633 -0.895 -0.351 -1.37 c 0.281 -0.476 0.895 -0.632 1.37 -0.351 c 5.198 3.077 9.728 4.744 18.767 4.744 c 9.038 0 13.568 -1.667 18.766 -4.744 c 0.479 -0.281 1.089 -0.124 1.37 0.351 c 0.281 0.476 0.124 1.089 -0.351 1.37 C 59.403 53.071 54.443 54.913 44.993 54.913 z" style="stroke: none; stroke-width: 1; stroke-dasharray: none; stroke-linecap: butt; stroke-linejoin: miter; stroke-miterlimit: 10; fill: rgb(75,85,99); fill-rule: nonzero; opacity: 1;" transform=" matrix(1 0 0 1 0 0) " stroke-linecap="round" />
	<path d="M 44.993 46.857 c -7.332 0 -11.183 -0.946 -15.357 -2.581 c -0.514 -0.201 -0.768 -0.782 -0.566 -1.296 c 0.201 -0.514 0.781 -0.767 1.296 -0.566 c 4.047 1.585 7.576 2.443 14.628 2.443 c 7.052 0 10.582 -0.859 14.628 -2.443 c 0.511 -0.202 1.094 0.052 1.295 0.566 c 0.202 0.514 -0.052 1.094 -0.566 1.296 C 56.177 45.91 52.326 46.857 44.993 46.857 z" style="stroke: none; stroke-width: 1; stroke-dasharray: none; stroke-linecap: butt; stroke-linejoin: miter; stroke-miterlimit: 10; fill: rgb(75,85,99); fill-rule: nonzero; opacity: 1;" transform=" matrix(1 0 0 1 0 0) " stroke-linecap="round" />
	<path d="M 55.703 37.19 c -0.084 0 -0.17 -0.011 -0.255 -0.033 c -2.892 -0.758 -5.414 -1.169 -10.455 -1.169 s -7.563 0.411 -10.455 1.169 c -0.538 0.139 -1.082 -0.179 -1.221 -0.713 c -0.14 -0.535 0.179 -1.081 0.713 -1.221 c 2.983 -0.782 5.733 -1.235 10.963 -1.235 c 5.23 0 7.98 0.453 10.962 1.235 c 0.534 0.14 0.854 0.687 0.714 1.221 C 56.552 36.892 56.146 37.19 55.703 37.19 z" style="stroke: none; stroke-width: 1; stroke-dasharray: none; stroke-linecap: butt; stroke-linejoin: miter; stroke-miterlimit: 10; fill: rgb(75,85,99); fill-rule: nonzero; opacity: 1;" transform=" matrix(1 0 0 1 0 0) " stroke-linecap="round" />
</g>
</svg>